<mxfile host="app.diagrams.net" agent="Mozilla/5.0 (Windows NT 10.0; Win64; x64) AppleWebKit/537.36 (KHTML, like Gecko) Chrome/131.0.0.0 Safari/537.36 Edg/131.0.0.0" version="24.8.9">
  <diagram name="Page-1" id="2pUa7_KvYTsxVd3FcLyF">
    <mxGraphModel dx="834" dy="452" grid="1" gridSize="10" guides="1" tooltips="1" connect="1" arrows="1" fold="1" page="1" pageScale="1" pageWidth="850" pageHeight="1100" math="0" shadow="0">
      <root>
        <mxCell id="0" />
        <mxCell id="1" parent="0" />
        <mxCell id="uzO9WDe4MXmgnWa7AC6C-13" value="" style="edgeStyle=orthogonalEdgeStyle;rounded=0;orthogonalLoop=1;jettySize=auto;html=1;" edge="1" parent="1" source="uzO9WDe4MXmgnWa7AC6C-2" target="uzO9WDe4MXmgnWa7AC6C-7">
          <mxGeometry relative="1" as="geometry" />
        </mxCell>
        <mxCell id="uzO9WDe4MXmgnWa7AC6C-2" value="Start" style="rounded=1;whiteSpace=wrap;html=1;arcSize=50;" vertex="1" parent="1">
          <mxGeometry x="305" y="120" width="120" height="60" as="geometry" />
        </mxCell>
        <mxCell id="uzO9WDe4MXmgnWa7AC6C-5" value="END" style="rounded=1;whiteSpace=wrap;html=1;arcSize=50;" vertex="1" parent="1">
          <mxGeometry x="305" y="640" width="120" height="60" as="geometry" />
        </mxCell>
        <mxCell id="uzO9WDe4MXmgnWa7AC6C-8" style="edgeStyle=orthogonalEdgeStyle;rounded=0;orthogonalLoop=1;jettySize=auto;html=1;exitX=0.5;exitY=1;exitDx=0;exitDy=0;entryX=0;entryY=0.5;entryDx=0;entryDy=0;" edge="1" parent="1" source="uzO9WDe4MXmgnWa7AC6C-6" target="uzO9WDe4MXmgnWa7AC6C-7">
          <mxGeometry relative="1" as="geometry">
            <Array as="points">
              <mxPoint x="365" y="440" />
              <mxPoint x="220" y="440" />
              <mxPoint x="220" y="250" />
            </Array>
          </mxGeometry>
        </mxCell>
        <mxCell id="uzO9WDe4MXmgnWa7AC6C-14" style="edgeStyle=orthogonalEdgeStyle;rounded=0;orthogonalLoop=1;jettySize=auto;html=1;exitX=1;exitY=0.5;exitDx=0;exitDy=0;entryX=0.5;entryY=0;entryDx=0;entryDy=0;" edge="1" parent="1" source="uzO9WDe4MXmgnWa7AC6C-6" target="uzO9WDe4MXmgnWa7AC6C-9">
          <mxGeometry relative="1" as="geometry">
            <Array as="points">
              <mxPoint x="490" y="355" />
              <mxPoint x="490" y="460" />
              <mxPoint x="365" y="460" />
            </Array>
          </mxGeometry>
        </mxCell>
        <mxCell id="uzO9WDe4MXmgnWa7AC6C-6" value="รันได้ตามปกติหรือไม่" style="rhombus;whiteSpace=wrap;html=1;" vertex="1" parent="1">
          <mxGeometry x="300.31" y="310" width="129.38" height="90" as="geometry" />
        </mxCell>
        <mxCell id="uzO9WDe4MXmgnWa7AC6C-12" style="edgeStyle=orthogonalEdgeStyle;rounded=0;orthogonalLoop=1;jettySize=auto;html=1;exitX=0.5;exitY=1;exitDx=0;exitDy=0;entryX=0.5;entryY=0;entryDx=0;entryDy=0;" edge="1" parent="1" source="uzO9WDe4MXmgnWa7AC6C-7" target="uzO9WDe4MXmgnWa7AC6C-6">
          <mxGeometry relative="1" as="geometry" />
        </mxCell>
        <mxCell id="uzO9WDe4MXmgnWa7AC6C-7" value="แก้โค้ด" style="rounded=0;whiteSpace=wrap;html=1;" vertex="1" parent="1">
          <mxGeometry x="305" y="220" width="120" height="60" as="geometry" />
        </mxCell>
        <mxCell id="uzO9WDe4MXmgnWa7AC6C-16" value="" style="edgeStyle=orthogonalEdgeStyle;rounded=0;orthogonalLoop=1;jettySize=auto;html=1;" edge="1" parent="1" source="uzO9WDe4MXmgnWa7AC6C-9" target="uzO9WDe4MXmgnWa7AC6C-5">
          <mxGeometry relative="1" as="geometry" />
        </mxCell>
        <mxCell id="uzO9WDe4MXmgnWa7AC6C-9" value="แสดงผลลัพธ์" style="shape=parallelogram;perimeter=parallelogramPerimeter;whiteSpace=wrap;html=1;fixedSize=1;" vertex="1" parent="1">
          <mxGeometry x="305" y="520" width="120" height="60" as="geometry" />
        </mxCell>
        <mxCell id="uzO9WDe4MXmgnWa7AC6C-11" value="F" style="text;html=1;align=center;verticalAlign=middle;resizable=0;points=[];autosize=1;strokeColor=none;fillColor=none;" vertex="1" parent="1">
          <mxGeometry x="320" y="400" width="30" height="30" as="geometry" />
        </mxCell>
        <mxCell id="uzO9WDe4MXmgnWa7AC6C-15" value="T" style="text;html=1;align=center;verticalAlign=middle;resizable=0;points=[];autosize=1;strokeColor=none;fillColor=none;" vertex="1" parent="1">
          <mxGeometry x="420" y="320" width="30" height="30" as="geometry" />
        </mxCell>
      </root>
    </mxGraphModel>
  </diagram>
</mxfile>
